<?xml version="1.0" encoding="UTF-8"?>
<svg width="80px" height="79px" version="1.1" viewBox="0 0 80 79" xmlns="http://www.w3.org/2000/svg">
<title>noun_744451_cc</title>
<desc>Created with Sketch.</desc>
<g fill="none" fill-rule="evenodd">
<g transform="translate(-170 -1368)" fill="#000" fill-rule="nonzero">
<g transform="translate(170 1368)">
<path d="m20.9 63.878h-10.9c-0.6 0-1 0.40816-1 1.0204v7.8571c0 0.61224 0.4 1.0204 1 1.0204h10.9c0.6 0 1-0.40816 1-1.0204v-7.8571c0-0.61224-0.4-1.0204-1-1.0204zm-1 7.8571h-8.9v-5.8163h8.9v5.8163z"/>
<path d="m35.6 63.878h-10.9c-0.6 0-1 0.40816-1 1.0204v7.8571c0 0.61224 0.4 1.0204 1 1.0204h10.9c0.6 0 1-0.40816 1-1.0204v-7.8571c0-0.61224-0.5-1.0204-1-1.0204zm-1 7.8571h-8.9v-5.8163h8.9v5.8163z"/>
<path d="m50.1 63.878h-10.9c-0.6 0-1 0.40816-1 1.0204v7.8571c0 0.61224 0.4 1.0204 1 1.0204h10.9c0.6 0 1-0.40816 1-1.0204v-7.8571c0-0.61224-0.4-1.0204-1-1.0204zm-1 7.8571h-8.9v-5.8163h8.9v5.8163z"/>
<path d="m78.6 0.71429h-76.8c-0.6 0-1 0.40816-1 1.0204v6.5306c0 0.61224 0.4 1.0204 1 1.0204h2.6v68.163c0 0.61224 0.4 1.0204 1 1.0204h69.5c0.6 0 1-0.40816 1-1.0204v-68.163h2.6c0.6 0 1-0.40816 1-1.0204v-6.5306c0.1-0.5102-0.4-1.0204-0.9-1.0204zm-22.9 21.122h18.2v8.6735h-18.2v-8.6735zm-49.3 10.714h47.3v26.531h-47.3v-26.531zm49.3 0h18.2v38.776h-18.2v-38.776zm-2-2.0408h-47.3v-8.6735h47.3v8.6735zm-47.3 30.612h47.3v15.204h-47.3v-15.204zm49.3 15.306v-2.9592h18.2v2.9592h-18.2zm18.3-56.633h-19.3-48.3v-10.51h67.6v10.51zm3.6-12.551h-74.8v-4.4898h74.8v4.4898z"/>
<path d="m11.6 49.898c-0.4-0.40816-1-0.40816-1.4 0-0.4 0.40816-0.4 1.0204 0 1.4286l3.7 3.7755c0.2 0.20408 0.5 0.30612 0.7 0.30612s0.5-0.10204 0.7-0.30612c0.4-0.40816 0.4-1.0204 0-1.4286l-3.7-3.7755z"/>
<path d="m12.4 45.306c-0.4-0.40816-1-0.40816-1.4 0-0.4 0.40816-0.4 1.0204 0 1.4286l7.5 7.6531c0.2 0.20408 0.5 0.30612 0.7 0.30612s0.5-0.10204 0.7-0.30612c0.4-0.40816 0.4-1.0204 0-1.4286l-7.5-7.6531z"/>
</g>
</g>
</g>
</svg>
