<?xml version="1.0" encoding="UTF-8"?><svg version="1.1" width="20px" height="22px" viewBox="0 0 20.0 22.0" xmlns="http://www.w3.org/2000/svg" xmlns:xlink="http://www.w3.org/1999/xlink"><defs><clipPath id="i0"><path d="M15,0 C15.5522847,-1.01453063e-16 16,0.44771525 16,1 L16,2 L18,2 C19.1045695,2 20,2.8954305 20,4 L20,20 C20,21.1045695 19.1045695,22 18,22 L2,22 C0.8954305,22 0,21.1045695 0,20 L0,4 C0,2.8954305 0.8954305,2 2,2 L4,2 L4,1 C4,0.44771525 4.44771525,1.01453063e-16 5,0 C5.55228475,-1.01453063e-16 6,0.44771525 6,1 L6,2 L14,2 L14,1 C14,0.44771525 14.4477153,1.01453063e-16 15,0 Z M18,8 L2,8 L2,20 L18,20 L18,8 Z"></path></clipPath></defs><g transform="translate(-2.0 -1.0)"><g transform="translate(2.0 1.0)"><g clip-path="url(#i0)"><polygon points="0,0 20,0 20,22 0,22 0,0" stroke="none" fill="#202020"></polygon></g></g></g></svg>